PathFileType	4	(X/Y/Z)	C:\Users\willi\Desktop\Data_PaperCallum_v2\17_Akif\Gait04\marker_experimental_temp.trc
DataRate	CameraRate	NumFrames	NumMarkers	Units	OrigDataRate	OrigDataStartFrame	OrigNumFrames
100.000000	100.000000	5	27	mm	100.000000	158	181
Frame#	Time	C7			T10			Clav			Sternum			Right_Back			PCL_CRAN			PCL_RECHTS			PCL_LINKS			RCL_UL_CRAN			RCL_UL_POST			RCL_UL_ANT			RCL_LL_CRAN			RCL_LL_POST			RCL_LL_ANT			Right_Heel			Right_Toe			Right_M5			LCL_UL_CRAN			LCL_UL_POST			LCL_UL_ANT			LCL_LL_CRAN			LCL_LL_POST			LCL_LL_ANT			Left_Heel			Left_Toe			Left_M5			*26			
		X1	Y1	Z1	X2	Y2	Z2	X3	Y3	Z3	X4	Y4	Z4	X5	Y5	Z5	X6	Y6	Z6	X7	Y7	Z7	X8	Y8	Z8	X9	Y9	Z9	X10	Y10	Z10	X11	Y11	Z11	X12	Y12	Z12	X13	Y13	Z13	X14	Y14	Z14	X15	Y15	Z15	X16	Y16	Z16	X17	Y17	Z17	X18	Y18	Z18	X19	Y19	Z19	X20	Y20	Z20	X21	Y21	Z21	X22	Y22	Z22	X23	Y23	Z23	X24	Y24	Z24	X25	Y25	Z25	X26	Y26	Z26	X27	Y27	Z27	

159	1.58	-665.9809570312501	1384.748657226563	148.3275909423828	-640.4689331054689	1167.265869140625	146.9293670654297	-812.2740478515626	1316.622802734375	155.2001037597657	-875.2680664062501	1153.942993164063	178.1766357421876	-634.6751708984376	1318.011840820313	44.23458480834964	-655.7819213867189	1000.4716796875	132.6016235351563	-648.2287597656251	940.8092651367188	109.4427185058594	-641.6924438476564	941.6150512695313	159.8954162597657	-828.8765258789063	706.1236572265625	-22.40538597106929	-826.27587890625	640.5035400390625	-22.08595848083491	-873.4612426757813	659.23681640625	-24.62494087219233	-919.5562133789063	367.5606079101562	8.564903259277401	-921.3814697265625	304.2542114257812	2.858596086502132	-968.105224609375	322.4713134765624	5.481438636779845	-1022.759521484375	17.28837585449212	86.1658554077149	-1191.172485351563	109.675552368164	48.43196487426765	-1158.336059570313	68.59297943115227	3.00146245956428	-697.9286499023438	746.3256225585938	327.9739685058594	-671.4740600585938	687.0185546875	318.3768310546876	-719.4893798828125	684.4457397460938	328.7314453125001	-556.9021606445313	389.4642639160156	293.3265380859376	-512.1520385742188	342.1340637207031	297.6919250488282	-558.8709716796875	324.1355590820312	288.9194641113282	-369.1494140625	87.93286132812497	214.1176910400391	-563.41015625	26.19867706298825	213.7376556396485	-514.2612915039063	7.461150169372528	274.1413879394532	nan	nan	nan	
160	1.59	-680.5070190429689	1382.913452148438	146.5568084716797	-655.3434448242189	1165.302001953125	145.6556701660157	-826.9271850585939	1314.862670898438	153.5083312988282	-890.1936035156251	1152.3740234375	176.8026580810547	-649.1013183593751	1315.770751953125	42.92160797119145	-671.1384887695314	998.6558837890625	131.5478668212891	-663.5991210937501	939.04443359375	108.2238235473633	-657.0641479492189	939.7296752929688	158.71142578125	-845.1236572265625	704.7281494140625	-23.29953765869135	-842.9586791992188	639.2296752929688	-22.80295181274409	-890.1813354492188	658.1630249023438	-25.08906173706049	-936.095703125	366.2286376953124	8.964055061340389	-937.2973022460938	302.8291625976562	3.464085340499935	-984.3616943359375	320.9509582519531	6.52048397064215	-1034.97314453125	16.45284271240228	87.24308013916021	-1204.86767578125	106.6239624023437	53.52324676513679	-1172.5947265625	65.9802169799804	7.149952411651683	-711.5713500976563	745.1321411132813	327.4083251953126	-684.5137939453125	686.0692138671875	317.9761047363282	-732.4664916992188	683.0956420898438	328.4956359863282	-566.3194580078125	390.0252075195312	294.2829589843751	-520.3247680664063	343.7867126464843	298.6039428710938	-566.686767578125	324.7173461914062	289.8310852050782	-371.3348999023438	92.95413970947263	215.72998046875	-563.6422729492188	26.06286048889157	214.0854949951172	-514.3433837890625	7.315853595733611	274.1427307128907	nan	nan	nan	
161	1.6	-695.0747680664064	1381.2060546875	144.7441558837891	-670.3012084960939	1163.465209960938	144.4183197021485	-841.6256103515626	1313.269165039063	151.7781219482422	-905.2250366210939	1151.005615234375	175.3659820556641	-663.5870361328126	1313.642700195313	41.54249191284184	-686.5955200195314	997.0062255859375	130.6292266845703	-679.0659179687501	937.462158203125	107.0853729248047	-672.5700683593751	937.9762573242188	157.6118927001953	-861.731689453125	703.7960815429688	-24.25413513183588	-860.2028198242188	638.4467163085938	-23.415205001831	-907.4227294921875	657.6912231445313	-25.35700225830072	-952.2908935546875	365.0712585449218	9.173464775085508	-952.2177124023438	301.3838500976562	4.308629035949766	-999.8986206054688	319.2507019042968	7.493214130401673	-1044.10205078125	15.64838218688958	88.47330474853521	-1216.161743164063	101.5427932739257	58.51492691040046	-1183.873779296875	61.75966262817376	11.30030918121345	-725.72900390625	743.85205078125	326.7582397460938	-698.1239013671875	685.0150756835938	317.4926452636719	-746.024658203125	681.6907348632813	328.1650695800782	-576.4962158203125	390.5606079101562	295.3432617187501	-529.157470703125	345.5081481933593	299.5143432617188	-575.0646362304688	325.3153381347656	290.7546997070313	-374.1102600097656	98.46617889404294	217.2660369873047	-563.7508544921875	25.83445930480953	214.4405364990235	-514.2750244140625	7.1792068481445	274.0551757812501	nan	nan	nan	
162	1.61	-709.6752929687501	1379.649536132813	142.897201538086	-685.3227539062501	1161.780639648438	143.2186431884766	-856.3566284179689	1311.860473632813	150.0213775634766	-920.3414306640626	1149.852172851563	173.8838806152344	-678.1262207031251	1311.652465820313	40.10080337524418	-702.1249389648439	995.5418090820313	129.8373718261719	-694.6041870117189	936.0803833007813	106.0219116210938	-688.1820068359376	936.3751220703125	156.590316772461	-878.5851440429688	703.3040161132813	-25.27962303161616	-877.8040161132813	638.1126708984375	-23.9527969360351	-924.9906005859375	657.7325439453125	-25.47200584411615	-968.13720703125	364.1065063476562	9.166065216064512	-966.3428955078125	300.0067749023437	5.252483367919981	-1014.800109863281	317.4699707031249	8.332776069641175	-1050.634765625	15.00307178497308	89.70169830322273	-1225.459716796875	94.77109527587884	63.1941452026368	-1192.600463867188	56.2093315124511	15.2418928146363	-740.4061889648438	742.4857788085938	326.0223388671876	-712.333984375	683.8448486328125	316.9315490722657	-760.1950073242188	680.2344360351563	327.7436218261719	-587.5235595703125	391.0601501464843	296.5036010742188	-538.759765625	347.2920532226562	300.4004516601563	-584.10107421875	325.9328613281249	291.7048645019532	-377.6806945800781	104.538589477539	218.6445465087891	-563.6768798828125	25.51626014709469	214.7809295654297	-514.0159301757813	7.116736412048309	273.8601379394532	nan	nan	nan	
163	1.62	-724.2990722656251	1378.264282226563	141.0238494873047	-700.3867187500001	1160.271362304688	142.0565490722657	-871.1069946289064	1310.6513671875	148.250717163086	-935.5197753906251	1148.924072265625	172.3744201660157	-692.7122802734376	1309.823608398438	38.60018539428715	-717.6961059570314	994.2778930664063	129.1606903076172	-710.1866455078126	934.9127807617188	105.0264205932618	-703.8688964843751	934.94384765625	155.6385498046876	-895.5526123046875	703.21337890625	-26.39155960083002	-895.5375366210938	638.1719970703125	-24.46477508544917	-942.6712646484375	658.1822509765624	-25.51175498962397	-983.6318969726563	363.3563537597656	8.919760704040588	-979.9141235351563	298.8255615234374	6.089031219482482	-1029.159545898438	315.7250671386718	8.974935531616273	-1055.092407226563	14.63747024536126	90.78205871582038	-1233.155639648438	86.75380706787102	67.39543151855476	-1199.2353515625	49.69522857666009	18.79417037963875	-755.5997314453125	741.037353515625	325.2026062011719	-727.1688842773438	682.548583984375	316.3023986816407	-775.0029296875	678.733642578125	327.2402038574219	-599.4932861328125	391.5141296386718	297.7581481933594	-549.2545166015625	349.1272277832031	301.2411193847657	-593.9168090820313	326.5729064941406	292.7086791992188	-382.2755126953125	111.2417831420898	219.78564453125	-563.3823852539063	25.13431358337399	215.0813293457032	-513.5582275390625	7.23399257659909	273.5469055175782	nan	nan	nan	
